<?xml version="1.0" encoding="UTF-8" standalone="no"?>
<!-- Created with Inkscape (http://www.inkscape.org/) -->

<svg
   xmlns:dc="http://purl.org/dc/elements/1.1/"
   xmlns:cc="http://creativecommons.org/ns#"
   xmlns:rdf="http://www.w3.org/1999/02/22-rdf-syntax-ns#"
   xmlns:svg="http://www.w3.org/2000/svg"
   xmlns="http://www.w3.org/2000/svg"
   xmlns:xlink="http://www.w3.org/1999/xlink"
   xmlns:sodipodi="http://sodipodi.sourceforge.net/DTD/sodipodi-0.dtd"
   xmlns:inkscape="http://www.inkscape.org/namespaces/inkscape"
   width="744.09448819"
   height="1052.3622047"
   id="svg2"
   version="1.1"
   inkscape:version="0.48.4 r9939"
   sodipodi:docname="icon.svg"
   inkscape:export-filename="G:\work_github\rf_hub\icon.png"
   inkscape:export-xdpi="300.01077"
   inkscape:export-ydpi="300.01077">
  <defs
     id="defs4">
    <linearGradient
       id="linearGradient4007">
      <stop
         style="stop-color:#8080ff;stop-opacity:1;"
         offset="0"
         id="stop4009" />
      <stop
         style="stop-color:#00008c;stop-opacity:1;"
         offset="1"
         id="stop4011" />
    </linearGradient>
    <linearGradient
       id="linearGradient3893">
      <stop
         style="stop-color:#8c8cff;stop-opacity:1;"
         offset="0"
         id="stop3895" />
      <stop
         id="stop3901"
         offset="1"
         style="stop-color:#0000af;stop-opacity:1;" />
    </linearGradient>
    <linearGradient
       inkscape:collect="always"
       xlink:href="#linearGradient3893"
       id="linearGradient3899"
       x1="184.68074"
       y1="478.38406"
       x2="539.01146"
       y2="478.38406"
       gradientUnits="userSpaceOnUse"
       gradientTransform="translate(116.53796,-840.23016)" />
    <linearGradient
       inkscape:collect="always"
       xlink:href="#linearGradient3893"
       id="linearGradient3939"
       gradientUnits="userSpaceOnUse"
       gradientTransform="translate(116.53796,-840.23016)"
       x1="184.68074"
       y1="478.38406"
       x2="539.01146"
       y2="478.38406" />
    <linearGradient
       inkscape:collect="always"
       xlink:href="#linearGradient3893"
       id="linearGradient3963"
       gradientUnits="userSpaceOnUse"
       gradientTransform="translate(116.53796,-840.23016)"
       x1="184.68074"
       y1="478.38406"
       x2="539.01146"
       y2="478.38406" />
    <linearGradient
       inkscape:collect="always"
       xlink:href="#linearGradient3893"
       id="linearGradient3990"
       gradientUnits="userSpaceOnUse"
       gradientTransform="translate(513.35072,-655.54939)"
       x1="184.68074"
       y1="478.38406"
       x2="539.01146"
       y2="478.38406" />
    <linearGradient
       inkscape:collect="always"
       xlink:href="#linearGradient4007"
       id="linearGradient4013"
       x1="-0.5"
       y1="875.20014"
       x2="354.83381"
       y2="875.20014"
       gradientUnits="userSpaceOnUse"
       gradientTransform="matrix(0,1,-1,0,1052.367,698.03323)" />
  </defs>
  <sodipodi:namedview
     id="base"
     pagecolor="#ffffff"
     bordercolor="#666666"
     borderopacity="1.0"
     inkscape:pageopacity="0.0"
     inkscape:pageshadow="2"
     inkscape:zoom="0.5"
     inkscape:cx="7.3570389"
     inkscape:cy="72.13965"
     inkscape:document-units="mm"
     inkscape:current-layer="layer2"
     showgrid="false"
     inkscape:window-width="2560"
     inkscape:window-height="1379"
     inkscape:window-x="-9"
     inkscape:window-y="-9"
     inkscape:window-maximized="1"
     showguides="true"
     inkscape:guide-bbox="true"
     inkscape:snap-bbox="false"
     inkscape:snap-nodes="true"
     inkscape:object-paths="true">
    <sodipodi:guide
       orientation="1,0"
       position="35.433071,0"
       id="guide3941" />
    <sodipodi:guide
       orientation="1,0"
       position="318.89764,0"
       id="guide3943" />
    <sodipodi:guide
       orientation="0,1"
       position="0,35.433071"
       id="guide3945" />
    <sodipodi:guide
       orientation="0,1"
       position="0,318.89764"
       id="guide3947" />
    <sodipodi:guide
       orientation="1,0"
       position="0,0"
       id="guide3949" />
    <sodipodi:guide
       orientation="0,1"
       position="0,354.33071"
       id="guide3951" />
    <sodipodi:guide
       orientation="1,0"
       position="354.33071,0"
       id="guide3953" />
    <sodipodi:guide
       orientation="0,1"
       position="0,0"
       id="guide3955" />
    <sodipodi:guide
       orientation="0,1"
       position="177.16535,177.16535"
       id="guide3994" />
    <sodipodi:guide
       orientation="1,0"
       position="177.16535,177.16535"
       id="guide3996" />
  </sodipodi:namedview>
  <metadata
     id="metadata7">
    <rdf:RDF>
      <cc:Work
         rdf:about="">
        <dc:format>image/svg+xml</dc:format>
        <dc:type
           rdf:resource="http://purl.org/dc/dcmitype/StillImage" />
        <dc:title></dc:title>
      </cc:Work>
    </rdf:RDF>
  </metadata>
  <g
     inkscape:groupmode="layer"
     id="layer3"
     inkscape:label="BG"
     style="display:inline" />
  <g
     inkscape:groupmode="layer"
     id="layer5"
     inkscape:label="shadows" />
  <g
     inkscape:groupmode="layer"
     id="layer2"
     inkscape:label="tower"
     style="display:inline">
    <g
       id="g3083"
       inkscape:export-xdpi="599.94281"
       inkscape:export-ydpi="599.94281">
      <path
         sodipodi:nodetypes="ccccccccc"
         inkscape:connector-curvature="0"
         d="m -0.00176,733.4663 c 0,-19.01623 16.4738,-35.43307 35.4331,-35.43307 l 283.47116,0 c 18.9593,0 35.43307,16.41684 35.43307,35.43307 l -8e-5,283.4677 c -10e-6,19.0162 -16.47377,35.433 -35.43307,35.433 l -283.47108,0 c -18.9593,0 -35.433,-16.4168 -35.433,-35.433 z"
         style="display:inline;fill:url(#linearGradient4013);fill-opacity:1;stroke:none"
         id="path4004" />
      <g
         style="fill:#000000;fill-opacity:0.38818563000000000"
         transform="translate(9.1819808,9.3033008)"
         id="g4041">
        <g
           transform="matrix(0.63210039,0,0,0.63210039,-112.01614,572.8421)"
           style="fill:#000000;fill-opacity:0.38818563;stroke:none"
           id="g4043">
          <g
             style="fill:#000000;fill-opacity:0.38818563;stroke:none"
             id="g4045">
            <path
               sodipodi:nodetypes="cczcczc"
               inkscape:connector-curvature="0"
               id="path4047"
               d="m 266.19818,336.24241 c 6.14509,6.18718 11.84375,12.28509 17.98885,18.47227 -8.603,9.42417 -29.75697,34.75718 -29.1572,72.11178 0.59977,37.3546 15.59423,57.03153 29.38912,71.08949 -6.103,6.18718 -12.77018,12.56377 -18.87319,18.75095 -12.49011,-11.4063 -37.41772,-39.73266 -37.28094,-89.84044 0.13678,-50.10778 27.20855,-82.7852 37.93336,-90.58405 z"
               style="fill:#000000;fill-opacity:0.38818563;stroke:none" />
            <path
               style="fill:#000000;fill-opacity:0.38818563;stroke:none"
               d="m 301.7242,371.58157 c 3.74544,3.73897 14.22771,14.70077 17.97315,18.43973 -4.52925,6.5433 -15.01191,14.2315 -14.64635,36.80516 0.36556,22.57367 8.21007,26.99603 14.65379,35.49136 -3.71979,3.73896 -14.65845,14.55667 -18.37824,18.29564 -7.61274,-6.89293 -22.98473,-23.50648 -22.90136,-53.787 0.0834,-30.28051 16.76222,-50.53198 23.29901,-55.24489 z"
               id="path4049"
               inkscape:connector-curvature="0"
               sodipodi:nodetypes="cczcczc" />
          </g>
          <path
             inkscape:connector-curvature="0"
             style="fill:#000000;fill-opacity:0.38818563;stroke:none"
             d="m 361.875,394.59375 c -18.30737,0.003 -32.1875,15.87053 -31.6875,32.21875 0.5,16.34822 5.75556,16.93769 11.1875,23.8125 2.32853,2.94705 4.0625,8.5625 1.625,15.5625 -2.4375,7 -54.75,154.6875 -54.75,154.6875 l 29.8125,0 c 0,0 10.38653,-29.02802 43.8125,-29.03125 33.42597,-0.003 43.8125,29 43.8125,29 l 29.8125,0 c 0,0 -52.3125,-147.6875 -54.75,-154.6875 -2.4375,-7 -0.70353,-12.61545 1.625,-15.5625 5.43194,-6.87481 10.6875,-7.43303 11.1875,-23.78125 0.5,-16.34822 -13.38013,-32.22199 -31.6875,-32.21875 z m 0,101.28125 10.875,30 -21.4375,-0.125 10.5625,-29.875 z m -19.3125,54.375 38.5625,0 6.1875,17.5625 -50.8125,0.125 c 0.125,-0.3125 6.0625,-17.6875 6.0625,-17.6875 z"
             id="path4051" />
          <g
             style="fill:#000000;fill-opacity:0.38818563;stroke:none"
             id="g4053"
             transform="matrix(-1,0,0,1,724.10725,0.04419417)">
            <path
               style="fill:#000000;fill-opacity:0.38818563;stroke:none"
               d="m 266.19818,336.24241 c 6.14509,6.18718 11.84375,12.28509 17.98885,18.47227 -8.603,9.42417 -29.75697,34.75718 -29.1572,72.11178 0.59977,37.3546 15.59423,57.03153 29.38912,71.08949 -6.103,6.18718 -12.77018,12.56377 -18.87319,18.75095 -12.49011,-11.4063 -37.41772,-39.73266 -37.28094,-89.84044 0.13678,-50.10778 27.20855,-82.7852 37.93336,-90.58405 z"
               id="path4055"
               inkscape:connector-curvature="0"
               sodipodi:nodetypes="cczcczc" />
            <path
               sodipodi:nodetypes="cczcczc"
               inkscape:connector-curvature="0"
               id="path4057"
               d="m 301.7242,371.58157 c 3.74544,3.73897 14.22771,14.70077 17.97315,18.43973 -4.52925,6.5433 -15.01191,14.2315 -14.64635,36.80516 0.36556,22.57367 8.21007,26.99603 14.65379,35.49136 -3.71979,3.73896 -14.65845,14.55667 -18.37824,18.29564 -7.61274,-6.89293 -22.98473,-23.50648 -22.90136,-53.787 0.0834,-30.28051 16.76222,-50.53198 23.29901,-55.24489 z"
               style="fill:#000000;fill-opacity:0.38818563;stroke:none" />
          </g>
        </g>
        <g
           id="g4059"
           style="fill:#000000;fill-opacity:0.38818563;stroke:none"
           transform="matrix(0.299207,0,0,0.299207,159.8401,640.93436)">
          <g
             id="g4061"
             style="fill:#000000;fill-opacity:0.38818563;stroke:none">
            <path
               style="fill:#000000;fill-opacity:0.38818563;stroke:none"
               d="m 266.19818,336.24241 c 6.14509,6.18718 11.84375,12.28509 17.98885,18.47227 -8.603,9.42417 -29.75697,34.75718 -29.1572,72.11178 0.59977,37.3546 15.59423,57.03153 29.38912,71.08949 -6.103,6.18718 -12.77018,12.56377 -18.87319,18.75095 -12.49011,-11.4063 -37.41772,-39.73266 -37.28094,-89.84044 0.13678,-50.10778 27.20855,-82.7852 37.93336,-90.58405 z"
               id="path4063"
               inkscape:connector-curvature="0"
               sodipodi:nodetypes="cczcczc" />
            <path
               sodipodi:nodetypes="cczcczc"
               inkscape:connector-curvature="0"
               id="path4065"
               d="m 301.7242,371.58157 c 3.74544,3.73897 14.22771,14.70077 17.97315,18.43973 -4.52925,6.5433 -15.01191,14.2315 -14.64635,36.80516 0.36556,22.57367 8.21007,26.99603 14.65379,35.49136 -3.71979,3.73896 -14.65845,14.55667 -18.37824,18.29564 -7.61274,-6.89293 -22.98473,-23.50648 -22.90136,-53.787 0.0834,-30.28051 16.76222,-50.53198 23.29901,-55.24489 z"
               style="fill:#000000;fill-opacity:0.38818563;stroke:none" />
          </g>
          <path
             id="path4067"
             d="m 361.875,394.59375 c -18.30737,0.003 -32.1875,15.87053 -31.6875,32.21875 0.5,16.34822 5.75556,16.93769 11.1875,23.8125 2.32853,2.94705 4.0625,8.5625 1.625,15.5625 -2.4375,7 -54.75,154.6875 -54.75,154.6875 l 29.8125,0 c 0,0 10.38653,-29.02802 43.8125,-29.03125 33.42597,-0.003 43.8125,29 43.8125,29 l 29.8125,0 c 0,0 -52.3125,-147.6875 -54.75,-154.6875 -2.4375,-7 -0.70353,-12.61545 1.625,-15.5625 5.43194,-6.87481 10.6875,-7.43303 11.1875,-23.78125 0.5,-16.34822 -13.38013,-32.22199 -31.6875,-32.21875 z m 0,101.28125 10.875,30 -21.4375,-0.125 10.5625,-29.875 z m -19.3125,54.375 38.5625,0 6.1875,17.5625 -50.8125,0.125 c 0.125,-0.3125 6.0625,-17.6875 6.0625,-17.6875 z"
             style="fill:#000000;fill-opacity:0.38818563;stroke:none"
             inkscape:connector-curvature="0" />
          <g
             transform="matrix(-1,0,0,1,724.10725,0.04419417)"
             id="g4069"
             style="fill:#000000;fill-opacity:0.38818563;stroke:none">
            <path
               sodipodi:nodetypes="cczcczc"
               inkscape:connector-curvature="0"
               id="path4071"
               d="m 266.19818,336.24241 c 6.14509,6.18718 11.84375,12.28509 17.98885,18.47227 -8.603,9.42417 -29.75697,34.75718 -29.1572,72.11178 0.59977,37.3546 15.59423,57.03153 29.38912,71.08949 -6.103,6.18718 -12.77018,12.56377 -18.87319,18.75095 -12.49011,-11.4063 -37.41772,-39.73266 -37.28094,-89.84044 0.13678,-50.10778 27.20855,-82.7852 37.93336,-90.58405 z"
               style="fill:#000000;fill-opacity:0.38818563;stroke:none" />
            <path
               style="fill:#000000;fill-opacity:0.38818563;stroke:none"
               d="m 301.7242,371.58157 c 3.74544,3.73897 14.22771,14.70077 17.97315,18.43973 -4.52925,6.5433 -15.01191,14.2315 -14.64635,36.80516 0.36556,22.57367 8.21007,26.99603 14.65379,35.49136 -3.71979,3.73896 -14.65845,14.55667 -18.37824,18.29564 -7.61274,-6.89293 -22.98473,-23.50648 -22.90136,-53.787 0.0834,-30.28051 16.76222,-50.53198 23.29901,-55.24489 z"
               id="path4073"
               inkscape:connector-curvature="0"
               sodipodi:nodetypes="cczcczc" />
          </g>
        </g>
        <g
           transform="matrix(0.31816135,0,0,0.31816135,136.42161,785.5284)"
           style="fill:#000000;fill-opacity:0.38818563;stroke:none"
           id="g4075">
          <g
             style="fill:#000000;fill-opacity:0.38818563;stroke:none"
             id="g4077">
            <path
               sodipodi:nodetypes="cczcczc"
               inkscape:connector-curvature="0"
               id="path4079"
               d="m 266.19818,336.24241 c 6.14509,6.18718 11.84375,12.28509 17.98885,18.47227 -8.603,9.42417 -29.75697,34.75718 -29.1572,72.11178 0.59977,37.3546 15.59423,57.03153 29.38912,71.08949 -6.103,6.18718 -12.77018,12.56377 -18.87319,18.75095 -12.49011,-11.4063 -37.41772,-39.73266 -37.28094,-89.84044 0.13678,-50.10778 27.20855,-82.7852 37.93336,-90.58405 z"
               style="fill:#000000;fill-opacity:0.38818563;stroke:none" />
            <path
               style="fill:#000000;fill-opacity:0.38818563;stroke:none"
               d="m 301.7242,371.58157 c 3.74544,3.73897 14.22771,14.70077 17.97315,18.43973 -4.52925,6.5433 -15.01191,14.2315 -14.64635,36.80516 0.36556,22.57367 8.21007,26.99603 14.65379,35.49136 -3.71979,3.73896 -14.65845,14.55667 -18.37824,18.29564 -7.61274,-6.89293 -22.98473,-23.50648 -22.90136,-53.787 0.0834,-30.28051 16.76222,-50.53198 23.29901,-55.24489 z"
               id="path4081"
               inkscape:connector-curvature="0"
               sodipodi:nodetypes="cczcczc" />
          </g>
          <path
             inkscape:connector-curvature="0"
             style="fill:#000000;fill-opacity:0.38818563;stroke:none"
             d="m 361.875,394.59375 c -18.30737,0.003 -32.1875,15.87053 -31.6875,32.21875 0.5,16.34822 5.75556,16.93769 11.1875,23.8125 2.32853,2.94705 4.0625,8.5625 1.625,15.5625 -2.4375,7 -54.75,154.6875 -54.75,154.6875 l 29.8125,0 c 0,0 10.38653,-29.02802 43.8125,-29.03125 33.42597,-0.003 43.8125,29 43.8125,29 l 29.8125,0 c 0,0 -52.3125,-147.6875 -54.75,-154.6875 -2.4375,-7 -0.70353,-12.61545 1.625,-15.5625 5.43194,-6.87481 10.6875,-7.43303 11.1875,-23.78125 0.5,-16.34822 -13.38013,-32.22199 -31.6875,-32.21875 z m 0,101.28125 10.875,30 -21.4375,-0.125 10.5625,-29.875 z m -19.3125,54.375 38.5625,0 6.1875,17.5625 -50.8125,0.125 c 0.125,-0.3125 6.0625,-17.6875 6.0625,-17.6875 z"
             id="path4083" />
          <g
             style="fill:#000000;fill-opacity:0.38818563;stroke:none"
             id="g4085"
             transform="matrix(-1,0,0,1,724.10725,0.04419417)">
            <path
               style="fill:#000000;fill-opacity:0.38818563;stroke:none"
               d="m 266.19818,336.24241 c 6.14509,6.18718 11.84375,12.28509 17.98885,18.47227 -8.603,9.42417 -29.75697,34.75718 -29.1572,72.11178 0.59977,37.3546 15.59423,57.03153 29.38912,71.08949 -6.103,6.18718 -12.77018,12.56377 -18.87319,18.75095 -12.49011,-11.4063 -37.41772,-39.73266 -37.28094,-89.84044 0.13678,-50.10778 27.20855,-82.7852 37.93336,-90.58405 z"
               id="path4087"
               inkscape:connector-curvature="0"
               sodipodi:nodetypes="cczcczc" />
            <path
               sodipodi:nodetypes="cczcczc"
               inkscape:connector-curvature="0"
               id="path4089"
               d="m 301.7242,371.58157 c 3.74544,3.73897 14.22771,14.70077 17.97315,18.43973 -4.52925,6.5433 -15.01191,14.2315 -14.64635,36.80516 0.36556,22.57367 8.21007,26.99603 14.65379,35.49136 -3.71979,3.73896 -14.65845,14.55667 -18.37824,18.29564 -7.61274,-6.89293 -22.98473,-23.50648 -22.90136,-53.787 0.0834,-30.28051 16.76222,-50.53198 23.29901,-55.24489 z"
               style="fill:#000000;fill-opacity:0.38818563;stroke:none" />
          </g>
        </g>
      </g>
      <g
         id="g4015">
        <g
           id="g3079"
           style="fill:#ffffff;stroke:none"
           transform="matrix(0.63210039,0,0,0.63210039,-112.01614,572.8421)">
          <g
             id="g3069"
             style="fill:#ffffff;stroke:none">
            <path
               style="fill:#ffffff;stroke:none"
               d="m 266.19818,336.24241 c 6.14509,6.18718 11.84375,12.28509 17.98885,18.47227 -8.603,9.42417 -29.75697,34.75718 -29.1572,72.11178 0.59977,37.3546 15.59423,57.03153 29.38912,71.08949 -6.103,6.18718 -12.77018,12.56377 -18.87319,18.75095 -12.49011,-11.4063 -37.41772,-39.73266 -37.28094,-89.84044 0.13678,-50.10778 27.20855,-82.7852 37.93336,-90.58405 z"
               id="path3015"
               inkscape:connector-curvature="0"
               sodipodi:nodetypes="cczcczc" />
            <path
               sodipodi:nodetypes="cczcczc"
               inkscape:connector-curvature="0"
               id="path3019"
               d="m 301.7242,371.58157 c 3.74544,3.73897 14.22771,14.70077 17.97315,18.43973 -4.52925,6.5433 -15.01191,14.2315 -14.64635,36.80516 0.36556,22.57367 8.21007,26.99603 14.65379,35.49136 -3.71979,3.73896 -14.65845,14.55667 -18.37824,18.29564 -7.61274,-6.89293 -22.98473,-23.50648 -22.90136,-53.787 0.0834,-30.28051 16.76222,-50.53198 23.29901,-55.24489 z"
               style="fill:#ffffff;stroke:none" />
          </g>
          <path
             id="path3045"
             d="m 361.875,394.59375 c -18.30737,0.003 -32.1875,15.87053 -31.6875,32.21875 0.5,16.34822 5.75556,16.93769 11.1875,23.8125 2.32853,2.94705 4.0625,8.5625 1.625,15.5625 -2.4375,7 -54.75,154.6875 -54.75,154.6875 l 29.8125,0 c 0,0 10.38653,-29.02802 43.8125,-29.03125 33.42597,-0.003 43.8125,29 43.8125,29 l 29.8125,0 c 0,0 -52.3125,-147.6875 -54.75,-154.6875 -2.4375,-7 -0.70353,-12.61545 1.625,-15.5625 5.43194,-6.87481 10.6875,-7.43303 11.1875,-23.78125 0.5,-16.34822 -13.38013,-32.22199 -31.6875,-32.21875 z m 0,101.28125 10.875,30 -21.4375,-0.125 10.5625,-29.875 z m -19.3125,54.375 38.5625,0 6.1875,17.5625 -50.8125,0.125 c 0.125,-0.3125 6.0625,-17.6875 6.0625,-17.6875 z"
             style="fill:#ffffff;stroke:none"
             inkscape:connector-curvature="0" />
          <g
             transform="matrix(-1,0,0,1,724.10725,0.04419417)"
             id="g3073"
             style="fill:#ffffff;stroke:none">
            <path
               sodipodi:nodetypes="cczcczc"
               inkscape:connector-curvature="0"
               id="path3075"
               d="m 266.19818,336.24241 c 6.14509,6.18718 11.84375,12.28509 17.98885,18.47227 -8.603,9.42417 -29.75697,34.75718 -29.1572,72.11178 0.59977,37.3546 15.59423,57.03153 29.38912,71.08949 -6.103,6.18718 -12.77018,12.56377 -18.87319,18.75095 -12.49011,-11.4063 -37.41772,-39.73266 -37.28094,-89.84044 0.13678,-50.10778 27.20855,-82.7852 37.93336,-90.58405 z"
               style="fill:#ffffff;stroke:none" />
            <path
               style="fill:#ffffff;stroke:none"
               d="m 301.7242,371.58157 c 3.74544,3.73897 14.22771,14.70077 17.97315,18.43973 -4.52925,6.5433 -15.01191,14.2315 -14.64635,36.80516 0.36556,22.57367 8.21007,26.99603 14.65379,35.49136 -3.71979,3.73896 -14.65845,14.55667 -18.37824,18.29564 -7.61274,-6.89293 -22.98473,-23.50648 -22.90136,-53.787 0.0834,-30.28051 16.76222,-50.53198 23.29901,-55.24489 z"
               id="path3077"
               inkscape:connector-curvature="0"
               sodipodi:nodetypes="cczcczc" />
          </g>
        </g>
        <g
           transform="matrix(0.299207,0,0,0.299207,159.8401,640.93436)"
           style="fill:#ffffff;stroke:none"
           id="g3088">
          <g
             style="fill:#ffffff;stroke:none"
             id="g3090">
            <path
               sodipodi:nodetypes="cczcczc"
               inkscape:connector-curvature="0"
               id="path3092"
               d="m 266.19818,336.24241 c 6.14509,6.18718 11.84375,12.28509 17.98885,18.47227 -8.603,9.42417 -29.75697,34.75718 -29.1572,72.11178 0.59977,37.3546 15.59423,57.03153 29.38912,71.08949 -6.103,6.18718 -12.77018,12.56377 -18.87319,18.75095 -12.49011,-11.4063 -37.41772,-39.73266 -37.28094,-89.84044 0.13678,-50.10778 27.20855,-82.7852 37.93336,-90.58405 z"
               style="fill:#ffffff;stroke:none" />
            <path
               style="fill:#ffffff;stroke:none"
               d="m 301.7242,371.58157 c 3.74544,3.73897 14.22771,14.70077 17.97315,18.43973 -4.52925,6.5433 -15.01191,14.2315 -14.64635,36.80516 0.36556,22.57367 8.21007,26.99603 14.65379,35.49136 -3.71979,3.73896 -14.65845,14.55667 -18.37824,18.29564 -7.61274,-6.89293 -22.98473,-23.50648 -22.90136,-53.787 0.0834,-30.28051 16.76222,-50.53198 23.29901,-55.24489 z"
               id="path3094"
               inkscape:connector-curvature="0"
               sodipodi:nodetypes="cczcczc" />
          </g>
          <path
             inkscape:connector-curvature="0"
             style="fill:#ffffff;stroke:none"
             d="m 361.875,394.59375 c -18.30737,0.003 -32.1875,15.87053 -31.6875,32.21875 0.5,16.34822 5.75556,16.93769 11.1875,23.8125 2.32853,2.94705 4.0625,8.5625 1.625,15.5625 -2.4375,7 -54.75,154.6875 -54.75,154.6875 l 29.8125,0 c 0,0 10.38653,-29.02802 43.8125,-29.03125 33.42597,-0.003 43.8125,29 43.8125,29 l 29.8125,0 c 0,0 -52.3125,-147.6875 -54.75,-154.6875 -2.4375,-7 -0.70353,-12.61545 1.625,-15.5625 5.43194,-6.87481 10.6875,-7.43303 11.1875,-23.78125 0.5,-16.34822 -13.38013,-32.22199 -31.6875,-32.21875 z m 0,101.28125 10.875,30 -21.4375,-0.125 10.5625,-29.875 z m -19.3125,54.375 38.5625,0 6.1875,17.5625 -50.8125,0.125 c 0.125,-0.3125 6.0625,-17.6875 6.0625,-17.6875 z"
             id="path3096" />
          <g
             style="fill:#ffffff;stroke:none"
             id="g3098"
             transform="matrix(-1,0,0,1,724.10725,0.04419417)">
            <path
               style="fill:#ffffff;stroke:none"
               d="m 266.19818,336.24241 c 6.14509,6.18718 11.84375,12.28509 17.98885,18.47227 -8.603,9.42417 -29.75697,34.75718 -29.1572,72.11178 0.59977,37.3546 15.59423,57.03153 29.38912,71.08949 -6.103,6.18718 -12.77018,12.56377 -18.87319,18.75095 -12.49011,-11.4063 -37.41772,-39.73266 -37.28094,-89.84044 0.13678,-50.10778 27.20855,-82.7852 37.93336,-90.58405 z"
               id="path3100"
               inkscape:connector-curvature="0"
               sodipodi:nodetypes="cczcczc" />
            <path
               sodipodi:nodetypes="cczcczc"
               inkscape:connector-curvature="0"
               id="path3102"
               d="m 301.7242,371.58157 c 3.74544,3.73897 14.22771,14.70077 17.97315,18.43973 -4.52925,6.5433 -15.01191,14.2315 -14.64635,36.80516 0.36556,22.57367 8.21007,26.99603 14.65379,35.49136 -3.71979,3.73896 -14.65845,14.55667 -18.37824,18.29564 -7.61274,-6.89293 -22.98473,-23.50648 -22.90136,-53.787 0.0834,-30.28051 16.76222,-50.53198 23.29901,-55.24489 z"
               style="fill:#ffffff;stroke:none" />
          </g>
        </g>
        <g
           id="g3104"
           style="fill:#ffffff;stroke:none"
           transform="matrix(0.31816135,0,0,0.31816135,136.42161,785.5284)">
          <g
             id="g3106"
             style="fill:#ffffff;stroke:none">
            <path
               style="fill:#ffffff;stroke:none"
               d="m 266.19818,336.24241 c 6.14509,6.18718 11.84375,12.28509 17.98885,18.47227 -8.603,9.42417 -29.75697,34.75718 -29.1572,72.11178 0.59977,37.3546 15.59423,57.03153 29.38912,71.08949 -6.103,6.18718 -12.77018,12.56377 -18.87319,18.75095 -12.49011,-11.4063 -37.41772,-39.73266 -37.28094,-89.84044 0.13678,-50.10778 27.20855,-82.7852 37.93336,-90.58405 z"
               id="path3108"
               inkscape:connector-curvature="0"
               sodipodi:nodetypes="cczcczc" />
            <path
               sodipodi:nodetypes="cczcczc"
               inkscape:connector-curvature="0"
               id="path3110"
               d="m 301.7242,371.58157 c 3.74544,3.73897 14.22771,14.70077 17.97315,18.43973 -4.52925,6.5433 -15.01191,14.2315 -14.64635,36.80516 0.36556,22.57367 8.21007,26.99603 14.65379,35.49136 -3.71979,3.73896 -14.65845,14.55667 -18.37824,18.29564 -7.61274,-6.89293 -22.98473,-23.50648 -22.90136,-53.787 0.0834,-30.28051 16.76222,-50.53198 23.29901,-55.24489 z"
               style="fill:#ffffff;stroke:none" />
          </g>
          <path
             id="path3112"
             d="m 361.875,394.59375 c -18.30737,0.003 -32.1875,15.87053 -31.6875,32.21875 0.5,16.34822 5.75556,16.93769 11.1875,23.8125 2.32853,2.94705 4.0625,8.5625 1.625,15.5625 -2.4375,7 -54.75,154.6875 -54.75,154.6875 l 29.8125,0 c 0,0 10.38653,-29.02802 43.8125,-29.03125 33.42597,-0.003 43.8125,29 43.8125,29 l 29.8125,0 c 0,0 -52.3125,-147.6875 -54.75,-154.6875 -2.4375,-7 -0.70353,-12.61545 1.625,-15.5625 5.43194,-6.87481 10.6875,-7.43303 11.1875,-23.78125 0.5,-16.34822 -13.38013,-32.22199 -31.6875,-32.21875 z m 0,101.28125 10.875,30 -21.4375,-0.125 10.5625,-29.875 z m -19.3125,54.375 38.5625,0 6.1875,17.5625 -50.8125,0.125 c 0.125,-0.3125 6.0625,-17.6875 6.0625,-17.6875 z"
             style="fill:#ffffff;stroke:none"
             inkscape:connector-curvature="0" />
          <g
             transform="matrix(-1,0,0,1,724.10725,0.04419417)"
             id="g3114"
             style="fill:#ffffff;stroke:none">
            <path
               sodipodi:nodetypes="cczcczc"
               inkscape:connector-curvature="0"
               id="path3116"
               d="m 266.19818,336.24241 c 6.14509,6.18718 11.84375,12.28509 17.98885,18.47227 -8.603,9.42417 -29.75697,34.75718 -29.1572,72.11178 0.59977,37.3546 15.59423,57.03153 29.38912,71.08949 -6.103,6.18718 -12.77018,12.56377 -18.87319,18.75095 -12.49011,-11.4063 -37.41772,-39.73266 -37.28094,-89.84044 0.13678,-50.10778 27.20855,-82.7852 37.93336,-90.58405 z"
               style="fill:#ffffff;stroke:none" />
            <path
               style="fill:#ffffff;stroke:none"
               d="m 301.7242,371.58157 c 3.74544,3.73897 14.22771,14.70077 17.97315,18.43973 -4.52925,6.5433 -15.01191,14.2315 -14.64635,36.80516 0.36556,22.57367 8.21007,26.99603 14.65379,35.49136 -3.71979,3.73896 -14.65845,14.55667 -18.37824,18.29564 -7.61274,-6.89293 -22.98473,-23.50648 -22.90136,-53.787 0.0834,-30.28051 16.76222,-50.53198 23.29901,-55.24489 z"
               id="path3118"
               inkscape:connector-curvature="0"
               sodipodi:nodetypes="cczcczc" />
          </g>
        </g>
      </g>
    </g>
  </g>
  <g
     inkscape:groupmode="layer"
     id="layer4"
     inkscape:label="Links" />
</svg>
